<?xml version="1.0" encoding="UTF-8" standalone="no"?>
<svg
   xmlns:dc="http://purl.org/dc/elements/1.1/"
   xmlns:cc="http://creativecommons.org/ns#"
   xmlns:rdf="http://www.w3.org/1999/02/22-rdf-syntax-ns#"
   xmlns:svg="http://www.w3.org/2000/svg"
   xmlns="http://www.w3.org/2000/svg"
   version="1.1"
   id="svg5210"
   viewBox="0 0 69.999921 70.000008"
   height="19.755558mm"
   width="19.755533mm">
  <defs
     id="defs5212" />
  <metadata
     id="metadata5215">
    <rdf:RDF>
      <cc:Work
         rdf:about="">
        <dc:format>image/svg+xml</dc:format>
        <dc:type
           rdf:resource="http://purl.org/dc/dcmitype/StillImage" />
        <dc:title></dc:title>
      </cc:Work>
    </rdf:RDF>
  </metadata>
  <g
     transform="translate(760.02104,-31.038381)"
     id="layer1">
    <path
       d="m -690.12029,63.301589 c 0.66914,-1.942725 -2.26714,-3.849474 -2.26714,-3.849474 0,0 2.75771,-4.245214 -0.7503,-5.612316 -3.5044,-1.367103 -4.68216,3.147934 -4.68216,3.147934 0,0 -1.87754,-1.888761 -4.09417,0 -2.21664,1.906749 0.009,4.622965 0.009,4.622965 0,0 -3.22665,1.40308 -2.27795,3.99338 0.82604,2.284501 3.48456,2.554323 4.13566,2.590299 -1.99479,3.525686 -2.08677,7.698947 -2.00561,9.605696 -1.64309,-1.564972 -3.48997,-3.147933 -5.53707,-4.712907 -1.40861,-1.29515 -2.51242,-3.219886 -3.44127,-5.450422 -2.11202,-7.519065 3.68837,-11.800255 3.68837,-11.800255 l -0.52665,-0.935386 c -3.60541,2.752193 -5.01763,5.684269 -5.30982,6.36782 -0.48877,-3.849473 -0.0649,-8.724274 2.1499,-12.357889 2.05791,-3.363792 4.62264,-4.604978 5.64889,-4.98273 0.4004,2.374442 2.42765,3.921427 4.82464,3.633616 2.47275,-0.323788 2.62966,-3.39977 2.62966,-3.39977 0,0 3.31864,1.277163 5.01943,-0.377751 1.7008,-1.654914 -0.30301,-5.126636 -0.30301,-5.126636 0,0 5.02485,-2.914087 2.16974,-6.133974 -2.85511,-3.237874 -6.41362,0.773492 -6.41362,0.773492 0,0 -0.92344,-2.914087 -4.16993,-2.122607 -3.24469,0.773493 -2.3988,4.712907 -2.3988,4.712907 0,0 -4.01662,-0.233846 -4.4044,2.914088 -0.26153,2.122606 1.19399,3.597638 2.16974,4.353143 -6.8032,2.914087 -8.605,8.688298 -9.05229,10.864869 -0.11543,-0.341775 -0.23268,-0.683552 -0.35171,-1.007339 -1.85771,-5.162611 -5.07174,-8.148652 -6.46953,-9.26392 1.76212,-1.133256 2.46733,-3.255863 1.63767,-5.252552 -0.94869,-2.302489 -3.96252,-1.654914 -3.96252,-1.654914 0,0 0.35531,-3.525686 -1.68998,-4.730896 -2.04167,-1.205208 -4.87515,1.636927 -4.87515,1.636927 0,0 -4.12664,-4.083321 -6.5092,-0.485682 -2.38076,3.597639 2.43126,5.97208 2.43126,5.97208 0,0 -2.57915,1.654914 -0.97215,4.569002 1.60701,2.914087 5.1998,1.079291 5.1998,1.079291 0,0 0.81703,3.921426 3.96793,3.471722 2.2004,-0.3058 3.24829,-2.230536 3.68116,-3.345804 5.99157,5.324505 6.5561,10.595046 8.5058,18.078134 0.94148,3.597639 1.90461,5.648293 2.66212,6.817526 -3.94088,-2.626276 -7.33706,-4.425095 -10.43205,-5.900127 l -0.0198,-0.05396 c -5.60561,-2.680241 -6.07995,-7.087349 -4.34127,-8.814215 1.73686,-1.726867 4.34127,-1.582961 4.34127,-1.582961 l -0.0776,-0.773492 c 0,0 -4.02925,-0.557635 -5.92304,2.356453 -1.53667,2.356454 -1.1002,4.712906 -0.77194,5.792198 -2.57375,-1.187221 -5.06092,-2.446394 -7.65991,-4.173261 -6.08717,-4.047343 -8.59418,-7.968769 -9.44549,-9.623683 2.18237,-0.539646 3.55851,-2.518347 3.26814,-4.838825 -0.31563,-2.518347 -3.39438,-2.68024 -3.39438,-2.68024 0,0 1.26252,-3.381781 -0.3968,-5.108647 -1.65751,-1.744856 -5.13126,0.305799 -5.13126,0.305799 0,0 -2.92184,-5.108648 -6.15931,-2.19456 -3.23927,2.914087 0.78818,6.529715 0.78818,6.529715 0,0 -2.92003,0.953374 -2.13186,4.263201 0.78997,3.29184 4.73987,2.428407 4.73987,2.428407 0,0 -0.23808,4.101308 2.92184,4.497048 2.36092,0.287812 3.92826,-1.564973 4.56854,-2.536335 3.37093,7.249242 10.59076,11.35055 17.87552,14.912213 -0.47254,0.07196 -2.08136,0.39574 -3.41422,1.726866 -1.57816,1.564973 -1.42124,3.291839 -1.42124,3.291839 l 1.02445,0.161895 c 0,0 0.71242,-2.752195 4.26732,-2.914088 2.62065,-0.10793 4.37916,0.233846 5.12224,0.431717 2.20942,1.097279 4.32685,2.19456 6.23687,3.38178 2.34468,1.457044 4.52705,2.950064 6.5543,4.461072 -0.0595,-0.01799 -0.11362,-0.05397 -0.17314,-0.07196 -5.47575,-2.320477 -14.53165,-0.845445 -23.05909,0.08994 -6.07995,0.683552 -9.42024,-0.251834 -10.84328,-0.827456 1.8487,-1.025327 2.63867,-3.111957 1.84148,-5.126635 -0.87114,-2.19456 -3.73166,-1.618938 -3.73166,-1.618938 0,0 0.37695,-3.345804 -1.54569,-4.515037 -1.92084,-1.187221 -4.63346,1.475032 -4.63346,1.475032 0,0 -3.86332,-3.939414 -6.16111,-0.557633 -2.296,3.399768 2.23286,5.720245 2.23286,5.720245 0,0 -2.46012,1.528996 -0.97214,4.335154 1.48797,2.806159 4.91122,1.097281 4.91122,1.097281 0,0 0.72865,3.741544 3.71541,3.363792 2.16253,-0.269823 3.17255,-2.19456 3.56754,-3.237875 3.75691,2.500359 7.93586,2.320477 7.93586,2.320477 -4.54148,2.932075 -8.09097,6.781549 -9.73586,8.724274 -1.02805,-1.29515 -2.71803,-1.852784 -4.42966,-1.313138 -2.26532,0.701539 -1.9046,3.57965 -1.9046,3.57965 0,0 -3.32224,-0.611599 -4.64067,1.20521 -1.32205,1.816807 1.13265,4.712906 1.13265,4.712906 0,0 -4.22404,3.543674 -1.01362,6.097998 3.20862,2.536328 5.87796,-1.79882 5.87796,-1.79882 0,0 1.34909,2.572313 4.2601,1.29515 2.91283,-1.277161 1.46453,-4.802847 1.46453,-4.802847 0,0 3.80561,-0.431717 3.64689,-3.435746 -0.11543,-2.230536 -2.04889,-3.38178 -3.04268,-3.831484 8.77094,-9.803567 17.57974,-11.836232 24.30899,-11.854221 -4.72003,3.867463 -5.8076,8.202617 -6.0583,9.911496 -1.67195,-1.618938 -4.12846,-1.654914 -5.78958,-0.03597 -1.69899,1.636925 -0.0631,4.047343 -0.0631,4.047343 0,0 -3.24469,0.953375 -3.59459,3.165922 -0.34809,2.230536 3.15811,3.705568 3.15811,3.705568 0,0 -2.15349,5.072677 1.86313,5.882137 4.01483,0.80947 4.42605,-4.2632 4.42605,-4.2632 0,0 2.36813,1.672903 4.38456,-0.773492 2.01824,-2.446394 -0.87836,-4.928765 -0.87836,-4.928765 0,0 3.19058,-2.122607 1.68457,-4.730895 -0.89098,-1.546985 -2.5052,-1.942725 -3.67575,-2.014678 0.99379,-5.900128 6.82304,-8.796226 9.03607,-9.713625 0.59158,0.07196 1.15972,0.143906 1.69178,0.215859 0.61683,0.08994 1.22104,0.19787 1.81442,0.323787 -5.23946,2.464383 -4.44769,8.400487 -4.44769,8.400487 l 1.26434,0 c -0.16954,-6.36782 4.93646,-7.249242 6.91682,-7.357172 2.54669,0.89941 4.62625,1.960714 5.88155,2.680242 0.97215,0.917397 1.88838,1.834796 2.74509,2.770182 -1.48798,0.05397 -5.10059,0.59361 -6.92044,4.425095 -0.0433,0 -0.074,0.01799 -0.074,0.01799 -1.4501,-1.511008 -3.64328,-1.546984 -5.11502,-0.125916 -1.47175,1.421066 -0.0541,3.507697 -0.0541,3.507697 0,0 -2.81182,0.827457 -3.11482,2.752194 -0.30301,1.924736 2.73606,3.201899 2.73606,3.201899 0,0 -1.86673,4.389119 1.61604,5.090651 3.47734,0.70154 3.83266,-3.687572 3.83266,-3.687572 0,0 2.0525,1.457043 3.80019,-0.665564 1.7477,-2.122607 -0.76293,-4.28119 -0.76293,-4.28119 0,0 2.76674,-1.834796 1.46093,-4.08332 -0.71604,-1.241185 -1.97134,-1.636926 -2.95972,-1.744855 1.19579,-1.331126 4.37915,-4.083319 8.33266,-1.043315 l 0.0217,-0.03597 c 0.8026,1.043315 1.54208,2.104619 2.2004,3.165922 4.16452,6.709597 2.4583,11.602386 2.4583,12.034104 0,0.43171 3.62706,-0.323789 3.84169,-0.647577 0.21101,-0.3058 0.52124,-2.500359 -2.24369,-8.940133 -0.63847,-1.475032 -1.47174,-3.022016 -2.50881,-4.604977 -0.0649,-0.737516 -0.24168,-3.543674 0.75751,-5.270541 1.15612,-1.99669 2.73788,-1.672902 2.73788,-1.672902 l 0.21101,-1.169232 c -4.16813,0.08994 -5.34047,3.615626 -5.66692,5.396458 -0.56814,-0.719528 -1.17054,-1.439056 -1.82345,-2.176572 l 0.0145,-0.05397 c -1.92985,-4.263203 -0.97575,-9.731614 -0.41663,-12.070079 1.29138,1.241186 3.2014,1.439056 4.75431,0.377753 1.8036,-1.20521 0.707,-3.651604 0.707,-3.651604 0,0 3.08777,-0.341775 3.75511,-2.302489"
       style="fill:#444444;fill-opacity:1;fill-rule:nonzero;stroke:none"
       id="path60" />
  </g>
</svg>
