<?xml version="1.0" encoding="UTF-8" standalone="no"?>
<svg
   xmlns:dc="http://purl.org/dc/elements/1.1/"
   xmlns:cc="http://creativecommons.org/ns#"
   xmlns:rdf="http://www.w3.org/1999/02/22-rdf-syntax-ns#"
   xmlns:svg="http://www.w3.org/2000/svg"
   xmlns="http://www.w3.org/2000/svg"
   version="1.1"
   id="svg3930"
   viewBox="0 0 70.000008 69.999994"
   height="69.999992"
   width="70.000008">
  <defs
     id="defs3932" />
  <metadata
     id="metadata3935">
    <rdf:RDF>
      <cc:Work
         rdf:about="">
        <dc:format>image/svg+xml</dc:format>
        <dc:type
           rdf:resource="http://purl.org/dc/dcmitype/StillImage" />
        <dc:title></dc:title>
      </cc:Work>
    </rdf:RDF>
  </metadata>
  <g
     transform="translate(-337.04724,-491.1811)"
     id="layer1">
    <path
       d="m 343.20994,500.97463 c -2.36387,0.59165 -5.23522,-0.76029 -5.23522,-0.76029 1.09762,5.32053 6.33285,5.6563 11.14648,7.00825 4.81362,1.35195 6.92452,4.64308 4.8979,6.16513 -2.0251,1.5191 -4.05173,-1.18332 -6.16415,-3.54702 -2.11098,-2.36369 -6.92308,-3.54554 -8.78108,-0.67598 -2.61838,4.47446 2.02662,7.42981 4.8979,7.51413 -2.6183,-3.3784 0.58877,-6.4166 3.62875,-3.96859 3.0399,2.44948 5.74255,4.81318 7.5162,4.223 1.7722,-0.59166 2.44975,-2.87105 2.44975,-2.87105 l 2.61685,2.44801 c 0,0 -2.28105,0.84461 -1.68937,3.29261 0.44379,1.83563 3.54882,3.12397 6.84025,4.64456 3.29296,1.51908 2.87136,3.45975 2.19525,4.55876 2.61693,0.25294 2.61693,-3.12398 2.61693,-3.12398 0,0 3.71745,3.63133 8.69673,8.52734 -5.48668,-3.2083 -16.12576,-0.92891 -19.75596,0.50883 -3.6331,1.43478 -6.24995,-1.09901 -5.15233,-3.3784 1.09763,-2.27937 3.29288,-1.9436 4.8121,-0.25442 1.09763,-2.19654 0.17016,-5.40335 -2.36387,-5.48766 -2.53258,-0.0843 -4.1376,2.19506 -4.1376,2.19506 0.0858,-0.8446 0.16862,-3.79847 -3.0399,-3.79847 -3.2086,0 -4.47485,2.19358 -4.72783,4.8117 -0.4216,0 -3.29295,-0.50736 -3.03998,-4.47445 0.25298,-3.96858 4.72928,-5.15044 4.72928,-5.15044 0,0 -6.83873,-0.6745 -8.02215,6.16366 -1.18198,6.83815 3.37722,13.00179 9.8787,13.76208 6.50293,0.76029 10.72488,-3.46124 20.77221,-4.81318 10.04733,-1.35046 14.94676,4.72887 17.05766,7.76854 -14.60943,-8.1901 -25.92309,-2.44949 -29.72337,0.0828 -3.79882,2.5338 -7.09323,5.57346 -10.47045,4.89749 -3.37868,-0.67597 -2.5325,-4.72738 -2.5325,-4.72738 0,0 -5.0666,1.43478 -4.64645,5.82639 0.67747,3.63134 3.63165,4.39015 3.63165,4.39015 0,0 -2.78548,0.50587 -3.6302,3.54702 -0.5074,2.19507 -1.43488,4.55876 -1.43488,4.55876 0,0 0.92748,-0.16862 4.98225,-0.50735 4.05326,-0.33724 4.89646,-3.1225 4.89646,-3.1225 0,0 0.67457,2.78526 2.78845,3.46123 2.11097,0.6745 5.73965,0.0843 6.66865,-4.13721 -5.40241,1.26468 -5.574,-7.34549 1.01327,-12.58023 6.58583,-5.23622 11.56953,-3.79996 11.56953,-3.79996 -11.99258,3.9671 -12.41418,14.26796 -8.69817,17.81646 3.71447,3.54406 10.04877,3.46123 16.29736,1.35047 6.24697,-2.11224 7.0059,0 7.26032,1.85634 1.01481,-1.26616 1.01328,-4.05437 -0.67457,-5.57199 -1.68785,-1.52057 -4.98225,-0.33873 -4.98225,-0.33873 0,0 1.4364,-0.67449 1.60357,-2.86956 0.15528,-2.02201 -2.02517,-3.63133 -4.30478,-3.20829 -2.27952,0.42156 -2.9541,3.03966 -2.9541,3.03966 0,0 0.67305,-4.30731 -2.61982,-4.81317 -3.29441,-0.50736 -4.98081,2.36221 -4.98081,2.36221 0,0 2.44823,-0.5887 3.63021,1.18333 1.18197,1.77351 0.33724,5.57346 -3.21006,5.99502 -3.5444,0.42304 -7.0917,-4.30582 -3.20707,-10.04792 3.88454,-5.7406 12.83425,-6.33227 19.25146,-4.47593 6.41712,1.8593 4.8979,3.12546 4.8979,3.12546 0,0 -1.94227,0.0843 -2.1109,2.19508 -0.16862,2.11076 1.51923,3.96857 3.88463,3.37691 2.36387,-0.59018 2.62867,-2.83702 2.62867,-2.83702 1.27517,0.57687 4.17459,2.81927 4.12425,5.60748 -0.0499,2.78674 -2.48368,4.08248 -5.96006,2.94353 0.18784,1.4333 1.06956,4.37683 4.10801,4.33984 3.03845,-0.037 4.29433,-0.89785 6.62427,-3.79699 0.27364,1.68476 1.46744,2.60036 3.41124,2.82815 2.19525,0.25885 4.0621,0.6242 4.0621,0.6242 0,0 -0.41268,-1.85486 -0.72629,-4.04402 -0.27669,-1.93769 -1.22041,-3.10771 -2.91123,-3.34141 2.84023,-2.39919 3.66864,-3.67571 3.63165,-6.71538 -0.037,-3.03967 -3.00444,-3.84581 -4.44084,-3.99668 1.22484,3.44644 -0.0121,5.90924 -2.79585,6.03052 -2.77518,0.11686 -5.07995,-2.69945 -5.69824,-3.96562 0.25885,-0.0384 2.25588,-0.41564 2.80912,-2.62402 0.5903,-2.36666 -1.26625,-4.05438 -3.37868,-3.88575 -2.1109,0.16862 -2.19525,2.11076 -2.19525,2.11076 0,0 -1.26625,1.52057 -3.12425,-4.89749 -1.858,-6.41659 -1.26777,-15.3655 4.47485,-19.24977 5.7411,-3.88278 10.47191,-0.33724 10.04733,3.2083 -0.42015,3.54702 -4.22043,4.39014 -5.99408,3.20977 -1.7722,-1.18333 -1.18197,-3.63134 -1.18197,-3.63134 0,0 -2.87128,1.68921 -2.36243,4.98034 0.50595,3.29259 4.81218,2.6181 4.81218,2.6181 0,0 -2.61838,0.67449 -3.03998,2.95536 -0.4216,2.27938 1.1864,4.46114 3.20861,4.30583 2.1938,-0.16863 2.87127,-1.60489 2.87127,-1.60489 0,0 -1.18343,3.29261 0.3358,4.98329 1.51923,1.68771 4.30767,1.68771 5.574,0.6745 -1.85655,-0.25294 -3.96745,-1.01323 -1.85655,-7.26119 2.10945,-6.24796 2.1938,-12.58172 -1.35205,-16.29737 -3.54738,-3.71417 -13.84768,-3.29112 -17.81803,8.69893 0,0 -1.43495,-4.98328 3.80172,-11.56849 5.23523,-6.58521 13.84769,-6.41511 12.58136,-1.01323 4.22043,-0.92743 4.81218,-4.56024 4.13615,-6.66951 -0.67457,-2.11077 -3.46157,-2.78526 -3.46157,-2.78526 0,0 2.787,-0.84608 3.12425,-4.89897 0.33732,-4.05142 0.50595,-4.98032 0.50595,-4.98032 0,0 -2.36243,0.9289 -4.55921,1.43478 -3.03989,0.84459 -3.54432,3.63133 -3.54432,3.63133 0,0 -0.7619,-2.95684 -4.39355,-3.62985 -4.38906,-0.42453 -5.82546,4.64307 -5.82546,4.64307 0,0 4.05325,-0.84607 4.72783,2.53232 0.67755,3.37692 -2.36242,6.66951 -4.8979,10.46947 -2.53105,3.79996 -8.27368,15.11404 -0.0828,29.71924 -3.03998,-2.10927 -9.1213,-7.00528 -7.76926,-17.05321 1.35061,-10.04939 5.57248,-14.26942 4.81363,-20.77033 -0.76037,-6.50238 -6.9246,-11.05966 -13.76486,-9.87929 -6.83873,1.18184 -6.16415,8.02147 -6.16415,8.02147 0,0 1.18487,-4.47593 5.15232,-4.72887 3.96746,-0.25293 4.47486,2.61811 4.47486,3.03967 -2.6183,0.25294 -4.81363,1.52058 -4.81363,4.72739 0,3.20829 2.95562,3.12397 3.80035,3.03967 0,0 -2.28105,1.60489 -2.19677,4.1372 0.0844,2.5338 3.29287,3.46123 5.48965,2.36518 -1.68785,-1.52058 -2.02662,-3.71565 0.25298,-4.81318 2.28105,-1.09754 4.81363,1.52057 3.37867,5.15043 -1.4364,3.63133 -3.716,14.26795 -0.5074,19.75711 -4.89645,-4.98181 -8.52955,-8.69597 -8.52955,-8.69597 0,0 3.37868,0 3.1257,-2.61811 -1.09908,0.67597 -3.0399,1.09901 -4.55913,-2.19359 -1.52075,-3.29409 -2.81064,-6.39736 -4.645,-6.84111 -2.44823,-0.5887 -3.29288,1.6892 -3.29288,1.6892 l -2.44822,-2.61515 c 0,0 2.2796,-0.67598 2.87127,-2.45097 0.59022,-1.77202 -1.77518,-4.47445 -4.2234,-7.51412 -2.44823,-3.03819 0.5932,-6.24648 3.96898,-3.62986 -0.0843,-2.87103 -3.03998,-7.51559 -7.51628,-4.89749 -2.86983,1.85784 -1.68785,6.66953 0.67747,8.78176 2.36243,2.10929 5.06516,4.13573 3.54593,6.16366 -1.52075,2.02496 -4.81218,-0.0858 -6.16423,-4.89897 -1.35205,-4.81319 -1.68785,-10.04793 -7.00887,-11.14398 0,0 1.35204,2.87105 0.76037,5.23474 -3.46302,-3.46123 -5.40538,-5.69919 -9.5429,-5.9536 0.25587,4.13867 2.5325,6.12223 5.99552,9.58346"
       style="fill:#bc4444;fill-opacity:1;fill-rule:nonzero;stroke:none;stroke-opacity:1"
       id="path838" />
  </g>
</svg>
