<?xml version="1.0" encoding="UTF-8" standalone="no"?>
<svg
   xmlns:dc="http://purl.org/dc/elements/1.1/"
   xmlns:cc="http://creativecommons.org/ns#"
   xmlns:rdf="http://www.w3.org/1999/02/22-rdf-syntax-ns#"
   xmlns:svg="http://www.w3.org/2000/svg"
   xmlns="http://www.w3.org/2000/svg"
   version="1.1"
   id="svg4614"
   viewBox="0 0 70.000046 70.000055"
   height="70.000053"
   width="70.000046">
  <defs
     id="defs4616" />
  <metadata
     id="metadata4619">
    <rdf:RDF>
      <cc:Work
         rdf:about="">
        <dc:format>image/svg+xml</dc:format>
        <dc:type
           rdf:resource="http://purl.org/dc/dcmitype/StillImage" />
        <dc:title></dc:title>
      </cc:Work>
    </rdf:RDF>
  </metadata>
  <g
     transform="translate(889.41164,312.99767)"
     id="layer1">
    <path
       d="m -889.29623,-285.47968 c 0.39064,3.90742 2.18257,5.73443 3.64632,6.18155 1.67818,0.51504 3.03284,-0.73632 3.19227,-1.84538 0.33564,-2.34757 -1.88422,-2.83049 -2.34479,-1.6388 -0.27038,0.70051 -3.05057,0.64359 -2.71586,-5.26437 0.23588,-4.15806 2.03992,-5.3883 3.09065,-5.75371 1.8516,0.0872 3.81041,-0.89055 4.13859,-2.50732 0.71696,-2.78826 -0.31886,-3.29872 0.63771,-3.76878 0.35335,-0.17353 0.99665,0.39294 0.99665,1.72693 0,1.2477 1.06565,5.04861 6.99896,4.54642 0.64329,0.5784 1.9038,1.89587 3.29669,4.36463 2.00822,3.56129 0.0569,4.8145 -1.22135,4.7842 -0.64982,0.10283 -0.34496,2.09968 2.40447,1.78111 0.22189,1.12375 -1.6642,2.53853 -2.3103,1.6948 -0.6461,-0.84373 -1.36772,-0.82629 -2.466,-1.07784 -1.09921,-0.25156 -1.30711,-1.52955 -1.6586,-1.16598 -0.35148,0.3654 -0.10628,3.93404 2.5816,4.31964 2.6879,0.38743 5.29467,-1.04755 5.67413,-5.34791 0.20138,-3.2161 -2.21334,-6.52308 -2.21334,-6.52308 0,0 3.04683,2.71389 6.3137,2.8764 4.38471,0.11476 6.1235,-2.27596 6.03585,-4.94762 -0.0876,-2.6735 -3.6603,-3.31709 -4.06772,-3.0132 -0.40649,0.30298 0.86054,0.65093 0.99013,1.75448 0.13052,1.10172 0.0317,1.80774 0.80925,2.53487 0.7785,0.72713 -0.8624,2.41184 -1.97,2.06939 0.63026,-2.65421 -1.35093,-3.17754 -1.52621,-2.55322 -0.11374,1.25411 -1.59707,3.02145 -4.96462,0.65643 -2.66272,-1.87199 -3.83372,-3.40614 -4.20851,-3.96618 0.34962,-5.57376 -3.3862,-6.59652 -4.62992,-6.59652 -1.3556,0 -1.93084,-0.6344 -1.75463,-0.98052 0.47828,-0.94289 0.99665,0.078 3.82812,-0.6289 1.53926,-0.30297 2.50609,-2.0189 2.54524,-3.73573 l 0.0196,-0.0202 c 0,0 0.10629,-3.4548 6.11324,-3.61179 6.0079,-0.157 5.98273,2.57984 5.2639,2.82773 -1.2232,0.41774 -0.79713,2.61657 1.59428,2.35492 1.1309,-0.12486 2.44082,-1.4203 1.96813,-3.0894 -0.41208,-1.45059 -2.21333,-3.27026 -6.16825,-3.76878 -6.28852,-0.79416 -9.18059,1.14762 -10.21174,2.13549 -1.40874,-1.09988 -3.57359,-1.20913 -5.27135,-0.43426 -2.15274,0.98145 -2.0334,4.39768 -2.0334,4.39768 -1.83388,-0.55086 -2.23292,-3.69166 -3.74887,-4.86958 -1.5141,-1.177 -6.37896,-0.78405 -6.37896,-0.78405 0,0 -0.39904,4.78971 0.79713,6.28161 1.19711,1.49191 4.38565,1.88485 4.94505,3.69167 0,0 -3.47011,-0.11936 -4.46583,2.00236 -0.81019,1.72143 -0.67221,3.93772 0.54168,5.31762 -1.07964,1.25045 -2.6478,4.06441 -2.09307,9.59319 z m 15.21365,-24.08626 c 1.54207,-0.0505 2.07349,0.78589 1.75464,2.19884 -0.31886,1.41387 -4.29988,2.40266 -4.67841,1.9381 -0.42606,-0.52423 1.38264,-4.08369 2.92377,-4.13694 z m -3.13633,8.42905 c 2.49863,-0.31492 6.00789,1.51761 5.6881,3.2978 -0.58363,0.52423 -2.07348,0.26257 -2.07348,0.26257 0,0 0.26664,1.4662 -0.26478,2.04185 -1.80778,0.31399 -3.6687,-3.14081 -3.34984,-5.60222 z m -9.24865,-8.69438 c 0.42513,-0.36632 6.80316,3.87621 8.07858,5.02841 1.27542,1.15222 -0.0774,2.2677 -0.0774,2.2677 0,0 -1.02369,1.41479 -2.28792,0.24972 -1.26517,-1.16414 -6.05079,-7.09963 -5.71328,-7.54583 z m 4.89004,8.9037 c 0.47268,0.37275 -0.53143,4.2921 -1.96721,4.60609 -1.43484,0.31399 -2.28512,-0.20933 -2.23291,-1.72786 0.0532,-1.51669 3.66869,-3.29872 4.20012,-2.87823"
       style="fill:#444444;fill-opacity:1;fill-rule:nonzero;stroke:none"
       id="path180" />
    <path
       d="m -851.64621,-305.95323 c 2.39141,0.26166 2.81655,-1.93718 1.59428,-2.35492 -0.71976,-0.24789 -0.744,-2.98473 5.2639,-2.82773 6.00695,0.15699 6.11324,3.61178 6.11324,3.61178 l 0.0186,0.0202 c 0.0401,1.71684 1.00691,3.43276 2.54617,3.73573 2.83054,0.70693 3.34984,-0.31399 3.82812,0.6289 0.17622,0.34612 -0.39903,0.98052 -1.75463,0.98052 -1.24465,0 -4.98047,1.02277 -4.63085,6.59653 -0.37386,0.56004 -1.54486,2.09418 -4.20944,3.96617 -3.36569,2.36502 -4.84901,0.59768 -4.96276,-0.65643 -0.17621,-0.62431 -2.15646,-0.10099 -1.52621,2.55322 -1.10853,0.34245 -2.74942,-1.34226 -1.97093,-2.06939 0.77849,-0.72713 0.67873,-1.43315 0.80925,-2.53486 0.12959,-1.10356 1.39756,-1.45151 0.99013,-1.75449 -0.40742,-0.30388 -3.98009,0.3397 -4.06773,3.0132 -0.0876,2.67166 1.65208,5.06238 6.0368,4.94762 3.26593,-0.1625 6.31369,-2.8764 6.31369,-2.8764 0,0 -2.41472,3.30699 -2.21334,6.52308 0.37853,4.30036 2.98624,5.73535 5.67413,5.34791 2.68695,-0.3856 2.93402,-3.95424 2.58067,-4.31964 -0.35149,-0.36357 -0.55846,0.91442 -1.65767,1.16598 -1.09828,0.25156 -1.82083,0.23411 -2.46693,1.07785 -0.6461,0.84372 -2.53126,-0.57106 -2.30937,-1.69481 2.74943,0.31858 3.05429,-1.67828 2.40354,-1.78111 -1.27729,0.0303 -3.22864,-1.2229 -1.22042,-4.7842 1.39196,-2.46876 2.6534,-3.78623 3.2967,-4.36463 5.93331,0.5022 6.99802,-3.29872 6.99802,-4.54641 0,-1.33399 0.64424,-1.90046 0.99759,-1.72694 0.95563,0.47006 -0.0802,0.98052 0.63771,3.76879 0.32818,1.61676 2.28699,2.59453 4.13859,2.50731 1.05072,0.36541 2.85477,1.59566 3.09065,5.75371 0.3347,5.90796 -2.44549,5.96488 -2.71586,5.26437 -0.4615,-1.19169 -2.68136,-0.70877 -2.34573,1.6388 0.16036,1.10907 1.5141,2.36043 3.19321,1.84538 1.46188,-0.44712 3.25567,-2.27413 3.64632,-6.18155 0.5538,-5.52877 -1.01344,-8.34274 -2.09307,-9.59319 1.21389,-1.3799 1.35187,-3.59618 0.54168,-5.31761 -0.99665,-2.12172 -4.46583,-2.00237 -4.46583,-2.00237 0.55847,-1.80681 3.74794,-2.19976 4.94411,-3.69167 1.19711,-1.4919 0.79807,-6.28161 0.79807,-6.28161 0,0 -4.86486,-0.39295 -6.37989,0.78405 -1.51595,1.17792 -1.91406,4.31873 -3.74794,4.86959 0,0 0.11934,-3.41624 -2.0334,-4.39768 -1.69776,-0.77488 -3.86261,-0.66563 -5.27136,0.43425 -1.03208,-0.98787 -3.92414,-2.92964 -10.21267,-2.13549 -3.95398,0.49853 -5.75523,2.31819 -6.16732,3.76879 -0.47362,1.6691 0.8363,2.96453 1.96814,3.08939 z m 28.59996,7.90389 c 0.0532,1.51853 -0.79714,2.04185 -2.23291,1.72786 -1.43485,-0.31399 -2.43896,-4.23334 -1.96627,-4.60609 0.53142,-0.42049 4.14604,1.36154 4.19918,2.87823 z m -7.38866,-6.75352 c 1.27635,-1.1522 7.65344,-5.39473 8.07765,-5.02841 0.33843,0.4462 -4.44625,6.38169 -5.71141,7.54583 -1.26517,1.16507 -2.28793,-0.24972 -2.28793,-0.24972 0,0 -1.35373,-1.11548 -0.0783,-2.2677 z m -4.51805,9.26819 c -0.53235,-0.57565 -0.26571,-2.04185 -0.26571,-2.04185 0,0 -1.48985,0.26166 -2.07442,-0.26257 -0.31885,-1.78019 3.19042,-3.61272 5.68811,-3.2978 0.31979,2.46141 -1.54207,5.91621 -3.34798,5.60222 z m 0.21257,-14.03127 c 1.54114,0.0532 3.34985,3.61271 2.92377,4.13694 -0.37945,0.46456 -4.35954,-0.52423 -4.6784,-1.9381 -0.31885,-1.41295 0.21351,-2.24934 1.75463,-2.19884"
       style="fill:#444444;fill-opacity:1;fill-rule:nonzero;stroke:none"
       id="path182" />
    <path
       d="m -857.17675,-250.04024 c -2.39141,-0.26349 -2.81748,1.93627 -1.59427,2.35492 0.71882,0.24605 0.74399,2.98473 -5.2639,2.82682 -6.00697,-0.15608 -6.11325,-3.61271 -6.11325,-3.61271 l -0.0196,-0.0193 c -0.0392,-1.71593 -1.00597,-3.43277 -2.54524,-3.73482 -2.83147,-0.70694 -3.34984,0.31307 -3.82813,-0.62798 -0.1762,-0.34888 0.39904,-0.98236 1.75464,-0.98236 1.24372,0 4.97954,-1.02368 4.62992,-6.5956 0.3748,-0.56005 1.54579,-2.0951 4.20851,-3.9671 3.36755,-2.36502 4.85088,-0.59677 4.96462,0.65735 0.17528,0.62247 2.15646,0.0992 1.52621,-2.55414 1.10761,-0.34337 2.74849,1.34226 1.97001,2.06847 -0.77756,0.72713 -0.67874,1.43315 -0.80926,2.53486 -0.1296,1.10356 -1.39662,1.4506 -0.99013,1.75541 0.40743,0.30297 3.98009,-0.34062 4.06773,-3.01228 0.0876,-2.67349 -1.65115,-5.06513 -6.03587,-4.95037 -3.26686,0.16526 -6.31369,2.87731 -6.31369,2.87731 0,0 2.41472,-3.30699 2.21333,-6.52124 -0.37945,-4.3022 -2.98623,-5.73626 -5.67411,-5.34791 -2.6879,0.3856 -2.9331,3.95424 -2.58161,4.31781 0.35149,0.36357 0.5594,-0.91443 1.6586,-1.16599 1.09828,-0.25155 1.8199,-0.23411 2.466,-1.07692 0.6461,-0.84374 2.53219,0.57197 2.3103,1.69389 -2.74942,-0.31675 -3.0543,1.68011 -2.40446,1.7811 1.27821,-0.0303 3.22956,1.22291 1.22134,4.7842 -1.39289,2.46877 -2.65339,3.78807 -3.2967,4.36647 -5.93331,-0.5022 -6.99895,3.29688 -6.99895,4.54458 0,1.33491 -0.6433,1.90137 -0.99666,1.72694 -0.95656,-0.47008 0.0793,-0.98054 -0.6377,-3.76881 -0.32818,-1.61676 -2.28793,-2.59453 -4.13859,-2.50732 -1.05073,-0.3654 -2.85478,-1.59565 -3.09065,-5.75371 -0.33471,-5.90795 2.44548,-5.96395 2.71586,-5.26344 0.46056,1.19168 2.68043,0.70785 2.34479,-1.63789 -0.15943,-1.10906 -1.51409,-2.36226 -3.19228,-1.84629 -1.46374,0.44803 -3.25567,2.27504 -3.64631,6.18063 -0.55474,5.52694 1.01343,8.34182 2.09306,9.59319 -1.21388,1.37989 -1.35187,3.59618 -0.54168,5.31761 0.99572,2.1208 4.46583,2.00329 4.46583,2.00329 -0.55939,1.80589 -3.74794,2.19884 -4.94504,3.69074 -1.19617,1.49191 -0.79714,6.28345 -0.79714,6.28345 0,0 4.86487,0.39295 6.37896,-0.78588 1.51596,-1.17701 1.91499,-4.31781 3.74887,-4.86775 0,0 -0.11933,3.41532 2.0334,4.39768 1.69776,0.77304 3.86355,0.6647 5.27136,-0.43426 1.03394,0.98603 3.92508,2.92781 10.21174,2.13366 3.95491,-0.49761 5.75616,-2.31636 6.16825,-3.76879 0.47269,-1.66726 -0.83723,-2.96453 -1.96813,-3.08756 z m -28.60089,-7.90481 c -0.0522,-1.51853 0.79807,-2.04276 2.23291,-1.72694 1.43578,0.31399 2.43989,4.23151 1.96721,4.60517 -0.53143,0.41957 -4.14698,-1.36062 -4.20012,-2.87823 z m 7.38866,6.7526 c -1.27542,1.15221 -7.65345,5.39474 -8.07858,5.02842 -0.33751,-0.44436 4.44811,-6.37986 5.71328,-7.54492 1.26423,-1.16415 2.28792,0.25064 2.28792,0.25064 0,0 1.3528,1.11365 0.0774,2.26586 z m 4.51991,-9.26634 c 0.53142,0.57472 0.26478,2.04092 0.26478,2.04092 0,0 1.48985,-0.26165 2.07348,0.26166 0.31979,1.77927 -3.18947,3.61271 -5.6881,3.29872 -0.31886,-2.4605 1.54206,-5.9153 3.34984,-5.6013 z m -0.21351,14.02943 c -1.54113,-0.0514 -3.34983,-3.61272 -2.92377,-4.13511 0.37853,-0.46639 4.35955,0.52239 4.67841,1.93626 0.31885,1.41295 -0.21257,2.25118 -1.75464,2.19885"
       style="fill:#444444;fill-opacity:1;fill-rule:nonzero;stroke:none"
       id="path184" />
    <path
       d="m -819.52673,-270.51562 c -0.39064,-3.90559 -2.18443,-5.7326 -3.64631,-6.18063 -1.67912,-0.51597 -3.03285,0.73723 -3.19321,1.84629 -0.33564,2.34574 1.88423,2.82957 2.34572,1.63789 0.27038,-0.70051 3.05057,-0.64451 2.71586,5.26344 -0.23587,4.15806 -2.03992,5.38831 -3.09065,5.75371 -1.85066,-0.0872 -3.81041,0.89056 -4.13859,2.50732 -0.71788,2.78827 0.31793,3.29873 -0.6377,3.76879 -0.35336,0.17444 -0.99759,-0.39203 -0.99759,-1.72694 0,-1.24769 -1.06471,-5.04678 -6.99802,-4.54458 -0.64331,-0.5784 -1.90474,-1.8977 -3.2967,-4.36646 -2.00823,-3.5613 -0.0569,-4.8145 1.22041,-4.7842 0.65077,-0.10099 0.34589,-2.09785 -2.40353,-1.78111 -0.22189,-1.12191 1.66327,-2.53762 2.30937,-1.69389 0.6461,0.84281 1.36865,0.82537 2.46693,1.07693 1.0992,0.25156 1.30618,1.52955 1.65767,1.16598 0.35335,-0.36357 0.10628,-3.9322 -2.58068,-4.31781 -2.68788,-0.38835 -5.29559,1.04571 -5.67411,5.34792 -0.20139,3.21425 2.21333,6.52124 2.21333,6.52124 0,0 -3.04776,-2.71206 -6.31369,-2.87732 -4.38472,-0.11476 -6.12444,2.27688 -6.0368,4.95037 0.0876,2.67166 3.6603,3.31525 4.06773,3.01228 0.40742,-0.30481 -0.86053,-0.65185 -0.99013,-1.7554 -0.13053,-1.10172 -0.0308,-1.80773 -0.80926,-2.53486 -0.77849,-0.72622 0.8624,-2.41184 1.97094,-2.06848 -0.63025,2.6533 1.35,3.17662 1.52621,2.55415 0.11374,-1.25412 1.59707,-3.02238 4.96276,-0.65736 2.66458,1.872 3.83557,3.40706 4.20944,3.9671 -0.34962,5.57192 3.38619,6.5956 4.63085,6.5956 1.3556,0 1.93084,0.63349 1.75463,0.98236 -0.47828,0.94105 -0.99758,-0.079 -3.82812,0.62798 -1.53927,0.30206 -2.50608,2.01889 -2.54617,3.73482 l -0.0186,0.0193 c 0,0 -0.10629,3.45663 -6.11325,3.61271 -6.00789,0.15791 -5.98365,-2.58077 -5.2639,-2.82682 1.22228,-0.41865 0.79714,-2.61841 -1.59427,-2.35492 -1.13184,0.12303 -2.44175,1.4203 -1.96813,3.08756 0.41208,1.45243 2.21333,3.27118 6.16732,3.76879 6.28759,0.79415 9.17872,-1.14762 10.21267,-2.13365 1.40781,1.09895 3.57359,1.20729 5.27135,0.43425 2.15274,-0.98236 2.0334,-4.39768 2.0334,-4.39768 1.83388,0.54994 2.23199,3.69075 3.74794,4.86775 1.51503,1.17883 6.37989,0.78589 6.37989,0.78589 0,0 0.39904,-4.79155 -0.79807,-6.28346 -1.19617,-1.4919 -4.38564,-1.88485 -4.94411,-3.69074 0,0 3.46918,0.11751 4.46583,-2.00329 0.81019,-1.72143 0.67221,-3.93772 -0.54168,-5.31761 1.07964,-1.25137 2.64687,-4.06625 2.09307,-9.59319 z m -15.21366,24.08626 c -1.54112,0.0523 -2.07348,-0.7859 -1.75463,-2.19885 0.31886,-1.41387 4.29895,-2.40265 4.6784,-1.93626 0.42608,0.52239 -1.38263,4.08369 -2.92377,4.13511 z m 3.13541,-8.42813 c -2.49769,0.31399 -6.00696,-1.51945 -5.68811,-3.29872 0.58457,-0.52331 2.07442,-0.26166 2.07442,-0.26166 0,0 -0.26664,-1.4662 0.26571,-2.04092 1.80591,-0.314 3.66777,3.1408 3.34798,5.6013 z m 9.24772,8.69346 c -0.42421,0.36632 -6.8013,-3.87621 -8.07765,-5.02842 -1.27542,-1.15221 0.0783,-2.26586 0.0783,-2.26586 0,0 1.02276,-1.41479 2.28793,-0.25064 1.26516,1.16506 6.04984,7.10056 5.71141,7.54492 z m -4.88817,-8.90279 c -0.47269,-0.37366 0.53142,-4.29118 1.96627,-4.60517 1.43577,-0.31582 2.28606,0.20841 2.23291,1.72694 -0.0531,1.51761 -3.66776,3.2978 -4.19918,2.87823"
       style="fill:#444444;fill-opacity:1;fill-rule:nonzero;stroke:none"
       id="path186" />
    <path
       d="m -849.97735,-275.93239 c 2.20308,0.48199 2.01102,2.49905 2.32428,3.01319 0.31047,0.51689 1.28101,-0.2433 1.41993,-0.98971 0.13799,-0.75009 0.43913,-0.8272 1.722,-0.9998 1.28382,-0.17078 1.26889,-0.99064 0.66195,-1.12926 -0.60787,-0.13864 -1.28847,-0.1267 -1.98584,-1.00991 -0.69645,-0.88229 -1.53181,-1.0907 -3.03286,-0.39478 -1.50196,0.69499 -3.73954,0.39937 -3.73954,0.39937 0,0 0.37945,2.19058 -0.27504,3.69167 -0.65449,1.502 -0.41395,2.31727 0.50532,2.97279 0.91927,0.65552 0.93139,1.32573 1.09362,1.91882 0.16129,0.59309 0.99385,0.5784 1.12251,-0.68949 0.12866,-1.26881 0.19952,-1.56903 0.95284,-1.72969 0.75425,-0.16159 1.49451,-1.14395 0.95936,-1.43131 -0.53422,-0.29012 -2.57321,-0.0321 -3.14007,-2.18415 -0.32258,-1.10999 -0.10255,-1.48824 -0.10255,-1.48824 0,0 0.37479,-0.23044 1.51409,0.0505"
       style="fill:#444444;fill-opacity:1;fill-rule:nonzero;stroke:none"
       id="path188" />
    <path
       d="m -855.38949,-277.04329 c 0,0 -2.23757,0.29562 -3.73861,-0.39937 -1.50105,-0.69592 -2.33641,-0.48751 -3.03286,0.39478 -0.69737,0.88321 -1.37797,0.87127 -1.98584,1.00991 -0.60788,0.13862 -0.62186,0.95848 0.66195,1.12926 1.28288,0.1726 1.58402,0.24971 1.722,0.9998 0.13892,0.74641 1.10947,1.5066 1.42086,0.98971 0.31233,-0.51414 0.11934,-2.5312 2.32335,-3.01319 1.1393,-0.28094 1.51316,-0.0505 1.51316,-0.0505 0,0 0.22189,0.37826 -0.10069,1.48823 -0.56779,2.15202 -2.60584,1.89403 -3.141,2.18416 -0.53515,0.28736 0.20511,1.26972 0.95936,1.43131 0.75332,0.16067 0.82418,0.46088 0.95284,1.72969 0.12866,1.2679 0.96122,1.28258 1.12345,0.68949 0.16129,-0.59309 0.17341,-1.2633 1.09268,-1.91882 0.91927,-0.65552 1.15981,-1.47079 0.50532,-2.9728 -0.65449,-1.50108 -0.27597,-3.69166 -0.27597,-3.69166"
       style="fill:#444444;fill-opacity:1;fill-rule:nonzero;stroke:none"
       id="path190" />
    <path
       d="m -844.5764,-281.63653 c -1.29313,-0.0487 -1.60173,-0.0992 -1.8115,-0.83088 -0.21071,-0.7308 -1.25025,-1.39734 -1.50943,-0.85382 -0.26105,0.54259 0.12493,2.53027 -2.02035,3.21976 -1.10853,0.38468 -1.50291,0.19004 -1.50291,0.19004 0,0 -0.25546,-0.35346 -0.0429,-1.49006 0.35615,-2.19609 2.41005,-2.12999 2.91538,-2.46877 0.50345,-0.33694 -0.32725,-1.2431 -1.09456,-1.33491 -0.76543,-0.09 -0.86519,-0.38101 -1.11599,-1.63146 -0.25265,-1.25228 -1.08149,-1.18801 -1.18498,-0.58115 -0.10255,0.60594 -0.0494,1.27432 -0.90156,2.01431 -0.85214,0.73631 -1.01343,1.57269 -0.21536,3.00584 0.79714,1.4304 0.63305,3.64944 0.63305,3.64944 -10e-4,0 2.19748,-0.50679 3.75912,0.0441 1.56165,0.55269 2.3737,0.26533 2.98158,-0.67756 0.60787,-0.9438 1.28567,-0.99797 1.8777,-1.19261 0.59202,-0.19463 0.52676,-1.01265 -0.76731,-1.06223"
       style="fill:#444444;fill-opacity:1;fill-rule:nonzero;stroke:none"
       id="path192" />
    <path
       d="m -855.4995,-285.40347 c -0.85215,-0.73999 -0.799,-1.40837 -0.90156,-2.01431 -0.10442,-0.60686 -0.93325,-0.67113 -1.18498,0.58115 -0.2508,1.25045 -0.35056,1.54149 -1.11692,1.63146 -0.76638,0.0918 -1.59708,0.99797 -1.09362,1.33491 0.50438,0.33878 2.55923,0.27268 2.91538,2.46877 0.21256,1.1366 -0.0429,1.49006 -0.0429,1.49006 0,0 -0.39531,0.19464 -1.50291,-0.19004 -2.14528,-0.68949 -1.75929,-2.67717 -2.02034,-3.21976 -0.25919,-0.54352 -1.29873,0.12302 -1.50943,0.85382 -0.20978,0.73173 -0.51838,0.78222 -1.81151,0.83088 -1.29407,0.0496 -1.36026,0.86761 -0.76823,1.06224 0.59202,0.19464 1.27075,0.2488 1.87863,1.19261 0.60787,0.94288 1.41993,1.23025 2.98157,0.67755 1.56164,-0.55085 3.75913,-0.0441 3.75913,-0.0441 0,0 -0.16409,-2.21904 0.63304,-3.64944 0.79808,-1.43314 0.63585,-2.26953 -0.21536,-3.00584"
       style="fill:#444444;fill-opacity:1;fill-rule:nonzero;stroke:none"
       id="path194" />
  </g>
</svg>
